<?xml version="1.0" standalone="no"?>
<!DOCTYPE svg PUBLIC "-//W3C//DTD SVG 20010904//EN" "http://www.w3.org/TR/2001/REC-SVG-20010904/DTD/svg10.dtd">
<!-- Created using Krita: https://krita.org -->
<svg xmlns="http://www.w3.org/2000/svg" 
    xmlns:xlink="http://www.w3.org/1999/xlink"
    xmlns:krita="http://krita.org/namespaces/svg/krita"
    xmlns:sodipodi="http://sodipodi.sourceforge.net/DTD/sodipodi-0.dtd"
    width="240pt"
    height="240pt"
    viewBox="0 0 240 240">
<defs/>
<ellipse id="shape010" transform="matrix(2.77239350471933 0 0 2.7786044973545 60.06 58.2825)" rx="23.04" ry="22.68" cx="23.04" cy="22.68" fill="#f5a802" fill-rule="evenodd" stroke="#ffffff" stroke-width="3.6" stroke-linecap="square" stroke-linejoin="bevel"/><ellipse id="shape11" transform="matrix(2.77239350471933 0 0 2.7786044973545 89.2948804822366 86.6338349414481)" rx="13.2150032553196" ry="13.26" cx="13.2150032553196" cy="13.26" fill="#124f90" fill-rule="evenodd" stroke="#ffffff" stroke-width="1.92" stroke-linecap="square" stroke-linejoin="bevel"/><rect id="shape21" transform="matrix(2.77239350471933 0 0 2.7786044973545 122.601616675139 114.749274297515)" fill="#ffffff" fill-rule="evenodd" stroke="#ffffff" stroke-width="0.24" stroke-linecap="square" stroke-linejoin="bevel" width="1.91999999999999" height="24.741453292646" rx="0.959999999999994" ry="0.811195189922814"/><rect id="shape41" transform="matrix(2.04091839098156 -1.88058791667002 1.8763842533882 2.04549066006017 123.755772535699 141.505894181685)" fill="#ffffff" fill-rule="evenodd" stroke="#ffffff" stroke-width="0.24" stroke-linecap="square" stroke-linejoin="bevel" width="9.38420875411219" height="1.92" rx="0.803322614356745" ry="0.803322614356745"/><rect id="shape011" transform="matrix(-1.73439990428951 -2.16771920287813 2.1628737173054 -1.73828548006137 123.343828551277 152.489825159251)" fill="#ffffff" fill-rule="evenodd" stroke="#ffffff" stroke-width="0.24" stroke-linecap="square" stroke-linejoin="bevel" width="9.38420875411219" height="1.92" rx="0.803322614356745" ry="0.803322614356745"/><path id="shape7" transform="matrix(2.61850203262607 0 0 2.64158787342177 127.041451741219 160.917584163247)" fill="#0b6937" fill-rule="evenodd" stroke="#0b6937" stroke-width="0.0024" stroke-linecap="square" stroke-linejoin="bevel" d="M0.803004 0.0145883C-0.626014 -0.0887254 0.338586 5.03233 0.0980064 7.60458C5.2002 6.98878 10.8179 4.9029 13.298 2.36959C10.3577 1.12527 5.42805 -0.151214 0.803004 0.0145883Z" sodipodi:nodetypes="cccc"/><path id="shape021" transform="matrix(-2.61850203262607 0 0 2.7786044973545 122.491819609993 160.442743561934)" fill="#0b6937" fill-rule="evenodd" stroke="#0b6937" stroke-width="0.0024" stroke-linecap="square" stroke-linejoin="bevel" d="M0.803004 0.0109714C-0.626014 -0.0923423 0.338586 5.02871 0.0980062 7.60096C5.2002 6.98516 10.6489 5.37198 13.129 2.83867C10.1887 1.59435 5.42805 -0.154831 0.803004 0.0109714Z" sodipodi:nodetypes="cccc"/><path id="shape6" transform="matrix(2.61850203262607 0 0 2.7786044973545 89.4622428984189 160.08829686948)" fill="none" stroke="#ffffff" stroke-width="1.4424" stroke-linecap="square" stroke-linejoin="bevel" d="M0 2.72804C8.75792 -0.391659 11.5754 0.0241829 16.5768 0.0126767C19.8598 0.00512375 24.2581 1.34173 27.36 2.20024" sodipodi:nodetypes="csc"/><path id="shape16" transform="matrix(2.77239350471933 0 0 2.7786044973545 84.1901859759452 166.657644830522)" fill="none" stroke="#ffffff" stroke-width="0.7224" stroke-linecap="square" stroke-linejoin="bevel" d="M0 0C2.7675 2.08 4.42625 3.38 4.97626 3.9" sodipodi:nodetypes="cc"/><path id="shape17" transform="matrix(2.77239350471933 0 0 2.7786044973545 153.711452557812 166.657644830522)" fill="none" stroke="#ffffff" stroke-width="0.7224" stroke-linecap="square" stroke-linejoin="bevel" d="M3.975 0C2.285 1.32 0.96 2.3 0 2.94" sodipodi:nodetypes="cc"/><path id="shape311" transform="matrix(2.12071535022355 0 0 2.07879762493815 218.095707898659 136.642776472044)" fill="none" stroke="#ffffff" stroke-width="0.0024" stroke-linecap="square" stroke-linejoin="miter" stroke-miterlimit="2" d="M0 7.08L6 0" sodipodi:nodetypes="cc"/><rect id="shape15" transform="matrix(2.12071535022355 0 0 2.07879762493815 214.02393442623 178.177153018308)" fill="#000000" fill-rule="evenodd" stroke="#000000" stroke-width="0.0024" stroke-linecap="square" stroke-linejoin="bevel" width="0.480000000000018" height="0.240000000000009"/>
</svg>
